<?xml version="1.0" encoding="UTF-8"?>
<svg xmlns="http://www.w3.org/2000/svg" xmlns:xlink="http://www.w3.org/1999/xlink" width="80pt" height="80pt" viewBox="0 0 80 80" version="1.1">
<g id="surface1">
<path style=" stroke:none;fill-rule:nonzero;fill:rgb(47.058824%,76.078431%,34.117647%);fill-opacity:1;" d="M 16.675781 28.640625 C 14.464844 28.640625 12.753906 30.453125 12.753906 32.5625 L 12.753906 49.152344 C 12.753906 51.363281 14.566406 53.171875 16.777344 53.171875 C 18.988281 53.171875 20.796875 51.363281 20.699219 49.152344 L 20.699219 32.5625 C 20.699219 30.453125 18.886719 28.640625 16.675781 28.640625 M 48.746094 13.664062 L 51.5625 8.636719 C 51.660156 8.332031 51.660156 8.03125 51.359375 7.933594 C 51.058594 7.832031 50.757812 7.933594 50.65625 8.132812 L 47.839844 13.261719 C 45.53125 12.253906 42.816406 11.652344 40.101562 11.652344 C 37.285156 11.652344 34.671875 12.253906 32.359375 13.261719 L 29.542969 8.132812 C 29.445312 7.832031 29.042969 7.730469 28.839844 7.933594 C 28.539062 8.03125 28.4375 8.433594 28.640625 8.636719 L 31.453125 13.664062 C 25.722656 16.476562 22.105469 21.90625 22.105469 28.039062 L 57.894531 28.039062 C 57.894531 21.90625 54.175781 16.476562 48.746094 13.664062 M 31.855469 21.503906 C 31.050781 21.503906 30.347656 20.800781 30.347656 19.996094 C 30.347656 19.191406 31.050781 18.488281 31.855469 18.488281 C 32.660156 18.488281 33.363281 19.191406 33.363281 19.996094 C 33.363281 20.902344 32.660156 21.503906 31.855469 21.503906 M 48.144531 21.503906 C 47.339844 21.503906 46.636719 20.800781 46.636719 19.996094 C 46.636719 19.191406 47.339844 18.488281 48.144531 18.488281 C 48.949219 18.488281 49.652344 19.191406 49.652344 19.996094 C 49.652344 20.902344 48.949219 21.503906 48.144531 21.503906 M 22.207031 29.34375 L 22.207031 55.082031 C 22.207031 57.394531 24.117188 59.304688 26.429688 59.304688 L 29.34375 59.304688 L 29.34375 68.152344 C 29.34375 70.363281 31.152344 72.171875 33.265625 72.171875 C 35.476562 72.171875 37.285156 70.363281 37.285156 68.152344 L 37.285156 59.304688 L 42.613281 59.304688 L 42.613281 68.152344 C 42.613281 70.363281 44.421875 72.171875 46.535156 72.074219 C 48.746094 72.074219 50.554688 70.261719 50.554688 68.050781 L 50.554688 59.304688 L 53.472656 59.304688 C 55.785156 59.304688 57.695312 57.394531 57.695312 55.082031 L 57.695312 29.34375 Z M 67.246094 32.5625 C 67.246094 30.351562 65.433594 28.640625 63.324219 28.640625 C 61.113281 28.640625 59.402344 30.453125 59.402344 32.664062 L 59.402344 49.25 C 59.402344 51.464844 61.210938 53.171875 63.324219 53.171875 C 65.535156 53.171875 67.246094 51.363281 67.246094 49.152344 Z M 67.246094 32.5625 "/>
</g>
</svg>
